<svg height="512" viewBox="0 0 54 60" width="512" xmlns="http://www.w3.org/2000/svg"><path id="Shape" d="m.54 55.868c4.882 3.055 13.385 4.379 19.148 4.841 9.438.758 25.849.118 33.772-4.841.3069331-.1918474.486237-.5345795.4688135-.8961175s-.2288544-.6854395-.5528135-.8468825c-.89-.443-3.464-1.857-4.692-2.559-6.7-3.906-5.3-.051-12.684-7v-5.814c1.913-1.812 3.017-3.385 3.14-6.161 2.0762625-1.0501436 3.4748571-3.0852853 3.711-5.4.21-1.062.666-4.063-.493-5.492 1.636-1.71 1.642-4.538 1.642-7.699-.0193245-2.5672862-1.6298946-4.85301229-4.041-5.735-.259-2.381-2.015-7.265-11.959-7.265-5.7296077-.02612126-11.4551031.31122271-17.142 1.01-.4665446.06567154-.8239655.44808698-.858.918-.19872873 2.72371321-.19872873 5.45828679 0 8.182.583 5.247 1.832 8.242 2.862 9.894-2.306.336-2.166 3.9-1.719 6.188.2402775 2.3131945 1.6376387 4.3465414 3.711 5.4.122 2.762 1.211 4.334 3.14 6.162v5.816c-1.4213258 1.390449-2.9637625 2.6514387-4.609 3.768-.82902.4916897-1.7324759.8453041-2.675 1.047-2.9.513-4.5 1.754-9.627 4.5-.428.228-.985.4-1.018 1.084-.01719487.3638073.164767.7081941.475.899zm47.144-2.568c1.031.589 2.077 1.164 3.129 1.733-3.9684017 1.6673351-8.1559063 2.7554666-12.434 3.231 1.7499009-2.0647192 2.9057607-4.5662015 3.344-7.237 1.73.587 2.527.273 5.961 2.273zm-6.8-26.445c-.0081852.0433028-.0138613.0870423-.017.131-.1472624 1.2809481-.779579 2.4568353-1.767 3.286-.153-3.248.431-3.612.75-7.065.3027726-.1737182.6532199-.2459104 1-.206.301.391.375 2.132.029 3.852zm-28.935-22.968c5.3288674-.60357398 10.6880748-.89973104 16.051-.887 9.025 0 10 4.2 10 6 .0021186.45641924.3112442.85421833.753.969.132.031 3.247.881 3.247 4.031 0 3.916-.115 6.069-2.017 6.91.006-.206.026-1.176.013-1.322-.657-7.098-3.036-8.588-4.915-8.588-4.144 0-4.246 1-8.081 1-3.818 0-3.96-1-8.081-1-2.6 0-4.268 2.748-4.847 8.026-1.1561251-2.5720638-1.859133-5.3245529-2.078-8.136-.1791231-2.33039313-.1941602-4.67049738-.045-7.003zm1.189 23.094c-.0031388-.0426334-.0088155-.085042-.017-.127-.363-1.816-.257-3.668.049-3.875.3353909-.0139849.6692846.0521768.974.193.3 3.341.91 3.828.756 7.1-.9871615-.8308364-1.6178509-2.0088152-1.762-3.291zm3.752 3.619c.224-4.655-.872-4.7-.89-10.851.3-3.269 1.218-6.749 2.919-6.749 3.819 0 3.96 1 8.081 1 4.143 0 4.245-1 8.081-1 1.419 0 2.537 2.6 2.919 6.718-.011 6.144-1.117 6.163-.89 10.886.283 5.923-1.521 4.611-5.209 10.021-1.152 1.689-1.68 2.375-3.201 2.375h-3.4c-2.73 0-2.668-2.755-6.138-5.911-2.291-2.074-2.403-3.732-2.272-6.489zm1.11 16.677v1.723c0 .5522847.4477153 1 1 1s1-.4477153 1-1v-7.894c1.474 2.094 2.413 3.894 5.3 3.894 5.512 0 5.655.441 8.7-3.894v7.894c0 .5522847.4477153 1 1 1s1-.4477153 1-1v-1.723c1.1735529 1.1045834 2.4611083 2.0813958 3.841 2.914-.367 2.283-1.621 7.176-5.709 8.527-4.7435806.3754983-9.5094194.3754983-14.253 0-4.1-1.347-5.353-6.243-5.72-8.528 1.3796244-.8326139 2.6671448-1.8090646 3.841-2.913zm-11.677 6.017c3.416-1.99 4.233-1.683 5.954-2.269.4380456 2.670858 1.5939282 5.1723899 3.344 7.237-4.2780937-.4755334-8.46559832-1.5636649-12.434-3.231 1.052-.569 2.1-1.145 3.136-1.737z" transform="translate(0 -1)"/></svg>