<svg height="512" viewBox="0 0 54 60" width="512" xmlns="http://www.w3.org/2000/svg"><path id="Shape" d="m.479 54.868c5.3 3.318 14.807 4.61 21.136 4.975 3.4854717.2057851 6.9798782.2114611 10.466.017.023 0 .047-.007.07-.009 6.333-.357 15.935-1.651 21.259-4.983.358088-.2242362.5366103-.6493274.446-1.062-.5867311-2.7750433-3.0198136-4.7718661-5.856-4.806-2.369448.0234621-4.7238408-.3789287-6.951-1.188 2.5255071-.7460985 4.9747551-1.7294807 7.315-2.937.2648603-.1462819.4492468-.4046183.5015078-.702642.0522611-.2980238-.0332238-.6036845-.2325078-.831358-6.633-7.581-.491-22.435-2.783-31.584-1.923-7.692-7.445-11.757-15.97-11.757-7.558 0-11.162 3.36-12.373 4.824-4.231-1.155-8.232.787-9.6 6.959-2.04 9.177 3.858 23.976-2.777 31.558-.19920323.2278084-.28453068.5335704-.23207285.8316086.05245784.2980383.23705763.5562902.50207285.7023914 2.36318284 1.2187895 4.8374294 2.2089569 7.389 2.957-2.2145173.7997628-4.55465122 1.1953738-6.909 1.168-2.83558565.0340501-5.26688856 2.0333893-5.848 4.809-.08903704.4119247.08973476.8354579.447 1.059zm14.454 2.309c-.173-3.8-1.19-6.018-2.085-7.246.8533157-.2822703 1.6848634-.6265204 2.488-1.03.343 2.09 1.244 5.989 3.438 8.721-1.312-.122-2.598-.267-3.841-.445zm7.059.687c-3.492-2.144-4.551-8.224-4.792-10.045.8726417-.5833802 1.6840973-1.2534509 2.422-2 .941-.957.9-2.039.812-3.405 4.626 4.612 8.18 4.7 12.89 0-.086 1.367-.129 2.393.835 3.374.7341584.7366142 1.541309 1.3966751 2.409 1.97-.228 1.756-1.274 7.941-4.807 10.108-3.2539922.1752958-6.5150798.1746282-9.769-.002zm-6.02-35.4c.8960944-1.5253053 1.6103013-3.1503944 2.128-4.842.5879914.8784415 1.3462971 1.6299462 2.23 2.21.3066863.2019718.6993994.2196042 1.0229519.0459296.3235525-.1736747.5258872-.5107134.5270481-.8779296.0450575-1.1890034.3834338-2.3484147.985-3.375 3.7366595 4.442776 8.9855257 7.3452369 14.735 8.148-.4559724 1.6838532-.4680306 3.4571015-.035 5.147.583 2.851-.278 5.45-2.974 8.973-2.368 3.1-4.531 5.046-6.438 5.788-.8238317.3264898-1.7411683.3264898-2.565 0-1.9-.74-4.061-2.686-6.429-5.786-2.695-3.521-3.557-6.121-2.975-8.968.698-3.327.085-3.639-.212-6.466zm22.461 26.383c.8099419.407283 1.6480997.755847 2.508 1.043-.9 1.222-1.943 3.454-2.115 7.306-1.245.176-2.535.319-3.848.438 2.222-2.759 3.122-6.709 3.455-8.787zm13.243 4.719c-3.4237596 1.6461514-7.0772538 2.7638455-10.836 3.315.271-4.166 1.7-5.886 2.246-6.4 1.6145727.3491934 3.2621031.5232 4.914.519 1.6427921-.0020784 3.1115931 1.0232054 3.676 2.566zm-44.248-9.911c6.142-8.589.53-22.9 2.428-31.438.587-2.64 1.668-4.384 3.216-5.185 1.3985005-.61988135 2.9856138-.66051202 4.414-.113.4583884.19757482.9922736.02686812 1.251-.4.028-.05 2.805-4.519 11.143-4.519 7.61 0 12.33 3.446 14.03 10.243 2.119 8.456-3.695 22.828 2.423 31.411-2.5814465 1.1930181-5.2666404 2.1473297-8.022 2.851-.9929497-.5870727-1.9084156-1.2962648-2.725-2.111-.17102-.164204-.27446-.3864217-.29-.623-.0336587-1.4137229.1384763-2.8248257.511-4.189 2.693-3.422 4.593-6.833 3.722-11.066-.3841904-1.5002071-.3586345-3.0760397.074-4.563.421.022.84.047 1.277.047.5522847 0 1-.4477153 1-1s-.4477153-1-1-1c-6.7415469-.0293628-13.0863091-3.1912119-17.169-8.556-.1664469-.2486732-.4355085-.4097394-.7333139-.4389778-.2978055-.0292384-.5930544.0764241-.8046861.2879778-1.0000406 1.0419852-1.6982353 2.3360647-2.02 3.744-.7421331-.8476953-1.188876-1.9134912-1.273-3.037.0013266-.5257052-.4046197-.9626765-.929-1-.5208661-.0290196-.9792222.3407757-1.061.856-.5175168 3.8654132-2.1579565 7.4939905-4.718 10.436-.3787042.3926454-.3728476 1.0163551.0131628 1.40182.3860105.3854648 1.0097279.3904391 1.4018372.01118.042-.042.323-.329.732-.837.2796742 1.2045959.2490516 2.4604665-.089 3.65-.864 4.229 1.028 7.636 3.718 11.057.3818143 1.385549.5540564 2.8204506.511 4.257-.0130408.2217119-.1069769.4309332-.264.588-.8026998.8077024-1.7021906 1.5130536-2.678 2.1-2.7783315-.705432-5.4860291-1.6644571-8.089-2.865zm-1.548 7.345c1.6204097.0053686 3.23691558-.1591979 4.823-.491.571.549 1.945 2.279 2.215 6.35-3.71451281-.5511508-7.32411851-1.6617469-10.706-3.294.56153409-1.5413366 2.02756199-2.566517 3.668-2.565z"/></svg>